<?xml version="1.0" standalone="no"?>
<!DOCTYPE svg PUBLIC "-//W3C//DTD SVG 20010904//EN"
 "http://www.w3.org/TR/2001/REC-SVG-20010904/DTD/svg10.dtd">
<svg version="1.0" xmlns="http://www.w3.org/2000/svg"
 width="980.000000pt" height="980.000000pt" viewBox="0 0 980.000000 980.000000"
 preserveAspectRatio="xMidYMid meet">

<g transform="translate(0.000000,980.000000) scale(0.100000,-0.100000)"
fill="#000000" stroke="none">
<path d="M3305 9393 c-300 -39 -637 -192 -913 -415 -385 -311 -697 -826 -831
-1369 -154 -627 -45 -1171 308 -1543 232 -244 529 -381 905 -417 519 -50 1082
183 1453 601 220 247 371 542 463 905 169 660 93 1307 -200 1716 -195 274
-484 458 -807 514 -78 14 -299 18 -378 8z m51 -1209 c44 -21 111 -95 135 -148
50 -114 65 -341 34 -504 -63 -330 -284 -680 -495 -786 -112 -55 -184 -48 -268
29 -76 68 -103 196 -82 385 40 362 170 673 379 901 110 120 213 163 297 123z"/>
<path d="M6886 9280 c-347 -55 -632 -260 -784 -565 -16 -33 -66 -148 -110
-255 -732 -1772 -1797 -3457 -3141 -4969 -495 -557 -1070 -1125 -1641 -1625
-223 -195 -259 -233 -299 -316 -22 -47 -26 -68 -26 -150 0 -91 2 -99 41 -180
154 -317 498 -623 854 -759 258 -98 511 -80 805 60 646 306 1988 1612 3071
2989 445 564 1142 1522 1494 2050 275 411 838 1331 1037 1695 118 215 203 427
245 617 31 139 31 336 0 450 -122 447 -556 823 -1085 939 -106 23 -366 34
-461 19z"/>
<path d="M7505 4220 c-435 -38 -906 -296 -1230 -672 -322 -375 -547 -869 -621
-1363 -24 -162 -22 -427 5 -579 64 -364 235 -651 511 -860 504 -381 1259 -373
1845 19 481 321 774 827 880 1515 22 145 31 468 16 611 -25 237 -81 440 -171
621 -71 141 -141 239 -250 348 -262 263 -614 392 -985 360z m4 -1220 c70 -35
128 -126 158 -247 22 -91 22 -310 -1 -412 -105 -468 -462 -888 -679 -798 -137
58 -187 187 -166 425 25 277 118 550 258 759 163 243 308 336 430 273z"/>
</g>
</svg>
